<svg width="640" height="480" viewBox="0 0 640 480" xmlns="http://www.w3.org/2000/svg">
<rect x="0" y="0" width="639" height="479" opacity="1" fill="#FFFFFF" stroke="none"/>
<rect x="558" y="438" width="2" height="1" opacity="0.5" fill="#FF0000" stroke="none"/>
<rect x="443" y="432" width="1" height="7" opacity="0.5" fill="#FF0000" stroke="none"/>
<rect x="258" y="296" width="1" height="143" opacity="0.5" fill="#FF0000" stroke="none"/>
<rect x="246" y="291" width="2" height="148" opacity="0.5" fill="#FF0000" stroke="none"/>
<rect x="130" y="342" width="2" height="97" opacity="0.5" fill="#FF0000" stroke="none"/>
<rect x="570" y="438" width="1" height="1" opacity="0.5" fill="#FF0000" stroke="none"/>
<rect x="628" y="438" width="2" height="1" opacity="0.5" fill="#FF0000" stroke="none"/>
<rect x="604" y="438" width="2" height="1" opacity="0.5" fill="#FF0000" stroke="none"/>
<rect x="96" y="398" width="1" height="41" opacity="0.5" fill="#FF0000" stroke="none"/>
<rect x="385" y="412" width="1" height="27" opacity="0.5" fill="#FF0000" stroke="none"/>
<rect x="211" y="272" width="2" height="167" opacity="0.5" fill="#FF0000" stroke="none"/>
<rect x="292" y="332" width="2" height="107" opacity="0.5" fill="#FF0000" stroke="none"/>
<rect x="431" y="429" width="2" height="10" opacity="0.5" fill="#FF0000" stroke="none"/>
<rect x="107" y="380" width="2" height="59" opacity="0.5" fill="#FF0000" stroke="none"/>
<rect x="315" y="360" width="2" height="79" opacity="0.5" fill="#FF0000" stroke="none"/>
<rect x="327" y="370" width="2" height="69" opacity="0.5" fill="#FF0000" stroke="none"/>
<rect x="223" y="270" width="1" height="169" opacity="0.5" fill="#FF0000" stroke="none"/>
<rect x="50" y="438" width="1" height="1" opacity="0.5" fill="#FF0000" stroke="none"/>
<rect x="466" y="435" width="1" height="4" opacity="0.5" fill="#FF0000" stroke="none"/>
<rect x="362" y="399" width="1" height="40" opacity="0.5" fill="#FF0000" stroke="none"/>
<rect x="547" y="438" width="1" height="1" opacity="0.5" fill="#FF0000" stroke="none"/>
<rect x="304" y="345" width="1" height="94" opacity="0.5" fill="#FF0000" stroke="none"/>
<rect x="408" y="423" width="1" height="16" opacity="0.5" fill="#FF0000" stroke="none"/>
<rect x="616" y="438" width="2" height="1" opacity="0.5" fill="#FF0000" stroke="none"/>
<rect x="419" y="427" width="2" height="12" opacity="0.5" fill="#FF0000" stroke="none"/>
<rect x="73" y="425" width="1" height="14" opacity="0.5" fill="#FF0000" stroke="none"/>
<rect x="188" y="275" width="2" height="164" opacity="0.5" fill="#FF0000" stroke="none"/>
<rect x="281" y="324" width="1" height="115" opacity="0.5" fill="#FF0000" stroke="none"/>
<rect x="350" y="390" width="2" height="49" opacity="0.5" fill="#FF0000" stroke="none"/>
<rect x="165" y="292" width="2" height="147" opacity="0.5" fill="#FF0000" stroke="none"/>
<rect x="454" y="433" width="2" height="6" opacity="0.5" fill="#FF0000" stroke="none"/>
<rect x="339" y="382" width="1" height="57" opacity="0.5" fill="#FF0000" stroke="none"/>
<rect x="84" y="412" width="2" height="27" opacity="0.5" fill="#FF0000" stroke="none"/>
<rect x="396" y="417" width="2" height="22" opacity="0.5" fill="#FF0000" stroke="none"/>
<rect x="512" y="437" width="1" height="2" opacity="0.5" fill="#FF0000" stroke="none"/>
<rect x="523" y="438" width="2" height="1" opacity="0.5" fill="#FF0000" stroke="none"/>
<rect x="200" y="273" width="1" height="166" opacity="0.5" fill="#FF0000" stroke="none"/>
<rect x="119" y="361" width="1" height="78" opacity="0.5" fill="#FF0000" stroke="none"/>
<rect x="154" y="307" width="1" height="132" opacity="0.5" fill="#FF0000" stroke="none"/>
<rect x="500" y="437" width="2" height="2" opacity="0.5" fill="#FF0000" stroke="none"/>
<rect x="373" y="408" width="2" height="31" opacity="0.5" fill="#FF0000" stroke="none"/>
<rect x="61" y="433" width="2" height="6" opacity="0.5" fill="#FF0000" stroke="none"/>
<rect x="142" y="322" width="2" height="117" opacity="0.5" fill="#FF0000" stroke="none"/>
<rect x="234" y="281" width="2" height="158" opacity="0.5" fill="#FF0000" stroke="none"/>
<rect x="269" y="314" width="2" height="125" opacity="0.5" fill="#FF0000" stroke="none"/>
<rect x="489" y="436" width="1" height="3" opacity="0.5" fill="#FF0000" stroke="none"/>
<rect x="177" y="284" width="1" height="155" opacity="0.5" fill="#FF0000" stroke="none"/>
<rect x="477" y="437" width="2" height="2" opacity="0.5" fill="#FF0000" stroke="none"/>
<rect x="535" y="438" width="2" height="1" opacity="0.5" fill="#FF0000" stroke="none"/>
</svg>
